<svg width="540" height="540" viewBox="0 0 540 540" fill="none" xmlns="http://www.w3.org/2000/svg">
<path d="M174.394 184H107.017C101.015 184 97.7967 191.058 101.732 195.59L162.121 265.125C164.601 267.981 164.364 272.29 161.586 274.856L24.1397 401.859C19.4608 406.182 22.5198 414 28.8903 414H99.3419C101.14 414 102.869 413.308 104.171 412.068L248.144 274.877C250.859 272.29 251.053 268.024 248.585 265.201L179.663 186.392C178.334 184.872 176.413 184 174.394 184Z" fill="#FFFFFF"/>
<path d="M365.606 356H432.983C438.985 356 442.203 348.942 438.268 344.41L377.879 274.875C375.399 272.019 375.636 267.71 378.414 265.144L515.86 138.141C520.539 133.818 517.48 126 511.11 126H440.658C438.86 126 437.131 126.692 435.829 127.932L291.856 265.123C289.141 267.71 288.947 271.976 291.415 274.799L360.337 353.608C361.666 355.128 363.587 356 365.606 356Z" fill="#FFFFFF"/>
</svg>
