<svg width="540" height="540" viewBox="0 0 540 540" fill="none" xmlns="http://www.w3.org/2000/svg">
<path fill-rule="evenodd" clip-rule="evenodd" d="M382.643 390.131C387.089 390.141 390.001 385.48 388.043 381.488L277.775 156.692C275.702 152.467 269.794 152.164 267.3 156.155L231.881 212.837C230.782 214.596 230.669 216.799 231.584 218.661L281.457 320.237C281.46 320.243 281.456 320.25 281.449 320.25V320.25C281.443 320.25 281.438 320.257 281.441 320.263L314.029 386.632C315.035 388.682 317.118 389.983 319.401 389.988L382.643 390.131ZM205.229 389.731C207.302 389.735 209.232 388.669 210.33 386.91L246.315 329.324C248.808 325.333 245.947 320.157 241.242 320.144L168.29 319.952C166.215 319.946 164.285 321.013 163.186 322.772L127.184 380.387C124.69 384.378 127.553 389.556 132.259 389.566L205.229 389.731Z" fill="white"/>
<path d="M345.797 322.796L396.506 241.166C398.989 237.169 396.115 232 391.409 232H289.991C285.286 232 282.411 237.169 284.894 241.166L335.604 322.796C337.951 326.574 343.45 326.574 345.797 322.796Z" fill="white"/>
</svg>
