<svg width="540" height="540" viewBox="0 0 540 540" fill="none" xmlns="http://www.w3.org/2000/svg">
<path d="M274.481 437.439L352.451 106.439C354.669 97.0227 347.525 88 337.851 88H292.061C285.137 88 279.113 92.7388 277.483 99.4678L197.285 430.468C194.998 439.908 202.149 449 211.863 449H259.88C266.84 449 272.885 444.213 274.481 437.439Z" fill="white"/>
<path d="M438.974 437.459L517.42 106.459C519.653 97.0374 512.507 88 502.824 88H456.577C449.662 88 443.642 92.7284 442.004 99.4475L361.317 430.448C359.015 439.893 366.168 449 375.89 449H424.379C431.33 449 437.371 444.223 438.974 437.459Z" fill="white"/>
<path fill-rule="evenodd" clip-rule="evenodd" d="M139.746 234.005C149.559 234.005 156.729 243.271 154.266 252.769L105.267 441.765C103.552 448.38 97.5818 453 90.7474 453H34.0082C24.1527 453 16.9753 443.658 19.5147 434.135L69.9135 245.14C71.6645 238.573 77.6112 234.005 84.407 234.005H139.746ZM166.45 161.005C173.284 161.005 179.255 156.385 180.97 149.769L192.119 106.764C194.582 97.266 187.412 88 177.599 88H123.342C116.546 88 110.599 92.5688 108.848 99.1351L97.3802 142.14C94.8408 151.662 102.018 161.005 111.874 161.005H166.45Z" fill="white"/>
</svg>
