<svg width="540" height="540" viewBox="0 0 540 540" fill="none" xmlns="http://www.w3.org/2000/svg">
    <path d="M274.686 441.439L352.656 110.439C354.875 101.023 347.73 92 338.056 92H292.266C285.343 92 279.318 96.7388 277.688 103.468L197.49 434.468C195.203 443.908 202.355 453 212.068 453H260.086C267.045 453 273.091 448.213 274.686 441.439Z" fill="white"/>
    <path d="M439.18 441.459L517.625 110.459C519.858 101.037 512.712 92 503.03 92H456.783C449.867 92 443.847 96.7284 442.209 103.447L361.522 434.448C359.22 443.893 366.374 453 376.096 453H424.584C431.536 453 437.576 448.223 439.18 441.459Z" fill="white"/>
    <path fill-rule="evenodd" clip-rule="evenodd" d="M139.746 234.005C149.559 234.005 156.729 243.271 154.266 252.769L105.267 441.765C103.552 448.38 97.5818 453 90.7474 453H34.0082C24.1527 453 16.9753 443.658 19.5147 434.135L69.9135 245.14C71.6645 238.573 77.6112 234.005 84.407 234.005H139.746ZM166.45 161.005C173.284 161.005 179.255 156.385 180.97 149.769L192.119 106.764C194.582 97.266 187.412 88 177.599 88H123.342C116.546 88 110.599 92.5688 108.848 99.1351L97.3802 142.14C94.8408 151.662 102.018 161.005 111.874 161.005H166.45Z" fill="white"/>
</svg>
