<svg width="1778" height="756" viewBox="0 0 1778 756" fill="none" xmlns="http://www.w3.org/2000/svg">
<rect x="593" y="292" width="12" height="103" fill="#777777"/>
<rect x="596.381" y="300.632" width="12.171" height="197.8" transform="rotate(-42.5 596.381 300.632)" fill="#777777"/>
<rect x="675" y="292" width="39" height="58" fill="#777777"/>
<rect x="1002" y="292" width="12" height="103" fill="#777777"/>
<rect x="1082" y="292" width="12" height="58" fill="#777777"/>
<rect x="1145" y="338" width="41" height="57" fill="#777777"/>
<rect x="1082" y="305" width="13" height="104" transform="rotate(-90 1082 305)" fill="#777777"/>
<rect x="1082" y="350" width="12" height="104" transform="rotate(-90 1082 350)" fill="#777777"/>
<rect x="1082" y="395" width="12" height="104" transform="rotate(-90 1082 395)" fill="#777777"/>
<rect x="957" y="305" width="13" height="103" transform="rotate(-90 957 305)" fill="#777777"/>
<rect width="12.171" height="244.845" transform="matrix(0.707107 -0.707106 0.707107 0.707106 826.278 295.606)" fill="#777777"/>
<rect width="12.171" height="128.247" transform="matrix(0.707107 0.707106 -0.707107 0.707106 916.963 289.296)" fill="#777777"/>
<rect x="704" y="305" width="13" height="100" transform="rotate(-90 704 305)" fill="#777777"/>
<rect x="704" y="350" width="12" height="80" transform="rotate(-90 704 350)" fill="#777777"/>
<path fill-rule="evenodd" clip-rule="evenodd" d="M719.155 395.187H803.97V383.016H708.002L719.155 395.187Z" fill="#777777"/>
</svg>
